<svg xmlns="http://www.w3.org/2000/svg" viewBox="0 0 200 200" width="200" height="200">
  <defs>
    <linearGradient id="grad1" x1="0%" y1="0%" x2="100%" y2="100%">
      <stop offset="0%" style="stop-color:#5f67ee;stop-opacity:1" />
      <stop offset="100%" style="stop-color:#8b5cf6;stop-opacity:1" />
    </linearGradient>
  </defs>
  
  <!-- Bell icon -->
  <path d="M100 30 C85 30 75 40 75 55 L75 85 C75 95 70 100 60 105 L60 115 L140 115 L140 105 C130 100 125 95 125 85 L125 55 C125 40 115 30 100 30 Z" fill="url(#grad1)"/>
  
  <!-- Bell clapper -->
  <circle cx="100" cy="125" r="8" fill="url(#grad1)"/>
  
  <!-- Notification dot -->
  <circle cx="130" cy="45" r="12" fill="#ef4444"/>
  
  <!-- Code brackets -->
  <path d="M50 60 L40 70 L50 80" stroke="url(#grad1)" stroke-width="4" fill="none" stroke-linecap="round"/>
  <path d="M150 60 L160 70 L150 80" stroke="url(#grad1)" stroke-width="4" fill="none" stroke-linecap="round"/>
</svg>
